<svg width="285" height="59" viewBox="0 0 285 59" fill="none" xmlns="http://www.w3.org/2000/svg">
<path d="M29.0585 52H22.0039V36.099H9.74217V52H2.63151V13.8712H9.74217V29.7162H22.0039V13.8712H29.0585V52ZM33.5591 33.6354C33.5591 32.2544 33.8204 30.9666 34.343 29.7722C34.8656 28.5404 35.5561 27.4579 36.4146 26.5248C37.2731 25.5916 38.2622 24.8638 39.382 24.3412C40.5018 23.7813 41.6216 23.5014 42.7414 23.5014H49.1242C50.5799 23.5014 51.8677 23.8186 52.9875 24.4532C54.1446 25.0504 55.0964 25.8342 55.8429 26.8047C56.6268 27.7379 57.224 28.8017 57.6346 29.9961C58.0825 31.1532 58.3065 32.2917 58.3065 33.4115V40.6341H40.1659V42.1459C40.1659 43.4896 40.5392 44.4414 41.2857 45.0013C42.0322 45.5612 43.0214 45.8412 44.2531 45.8412H57.2987V52.112H42.7974C41.5283 52.112 40.3339 51.8694 39.2141 51.3841C38.0943 50.8615 37.1051 50.171 36.2466 49.3125C35.4254 48.454 34.7722 47.4275 34.287 46.2331C33.8018 45.0386 33.5591 43.7322 33.5591 42.3138V33.6354ZM40.2219 35.3151H51.8117V35.0352C51.8117 33.5795 51.4384 32.385 50.6919 31.4519C49.9454 30.4814 48.9376 29.9961 47.6685 29.9961H44.1971C43.5999 29.9961 43.0587 30.1454 42.5734 30.444C42.0882 30.7053 41.6776 31.0599 41.3417 31.5078C41.0057 31.9558 40.7258 32.497 40.5018 33.1315C40.3152 33.7288 40.2219 34.3633 40.2219 35.0352V35.3151ZM91.1644 29.8842C90.194 29.8842 89.4101 30.0148 88.8129 30.2761C88.2157 30.5 87.7491 30.8173 87.4131 31.2279C87.1145 31.6385 86.9092 32.1237 86.7973 32.6836C86.6853 33.2435 86.6293 33.8594 86.6293 34.5313V52H80.0785V34.5873C80.0785 33.9154 80.0225 33.2995 79.9106 32.7396C79.7986 32.1424 79.5746 31.6385 79.2387 31.2279C78.9401 30.8173 78.4922 30.5 77.8949 30.2761C77.2977 30.0148 76.4952 29.8842 75.4874 29.8842H74.1436C73.1732 29.8842 72.3706 30.0148 71.7361 30.2761C71.1389 30.5 70.6723 30.8173 70.3364 31.2279C70.0004 31.6385 69.7578 32.1424 69.6085 32.7396C69.4965 33.2995 69.4405 33.9154 69.4405 34.5873V52H62.8897V23.5014H69.4405V24.3412C70.8962 23.7813 72.4453 23.5014 74.0876 23.5014H76.5512C78.0442 23.5014 79.3693 23.7253 80.5264 24.1732C81.6836 24.6211 82.6727 25.237 83.4939 26.0209C84.3897 25.237 85.4348 24.6211 86.6293 24.1732C87.8237 23.7253 89.1675 23.5014 90.6605 23.5014H93.572C95.2143 23.5014 96.6701 23.7813 97.9392 24.3412C99.2083 24.9011 100.253 25.6476 101.075 26.5808C101.933 27.4766 102.568 28.5217 102.978 29.7162C103.426 30.8733 103.65 32.0491 103.65 33.2435V52H97.1553V34.5873C97.1553 33.9154 97.0993 33.2995 96.9873 32.7396C96.8754 32.1424 96.6514 31.6385 96.3155 31.2279C95.9795 30.8173 95.513 30.5 94.9157 30.2761C94.3185 30.0148 93.5347 29.8842 92.5642 29.8842H91.1644ZM107.535 32.5157C107.647 31.3212 107.908 30.1828 108.319 29.1003C108.767 28.0178 109.401 27.066 110.222 26.2448C111.043 25.4237 112.07 24.7704 113.302 24.2852C114.533 23.7626 115.952 23.5014 117.557 23.5014H120.916C122.596 23.5014 124.052 23.7813 125.283 24.3412C126.553 24.9011 127.598 25.6476 128.419 26.5808C129.24 27.4766 129.856 28.5217 130.267 29.7162C130.677 30.8733 130.882 32.0491 130.882 33.2435V52H114.981C113.75 52 112.649 51.776 111.678 51.3281C110.708 50.8429 109.886 50.227 109.214 49.4805C108.58 48.6966 108.095 47.7821 107.759 46.737C107.46 45.6919 107.311 44.5721 107.311 43.3776C107.311 42.2205 107.479 41.138 107.815 40.1302C108.151 39.1224 108.636 38.2639 109.27 37.5547C109.905 36.8082 110.689 36.2296 111.622 35.819C112.593 35.3711 113.675 35.1472 114.869 35.1472H124.444V34.5873C124.444 33.9154 124.388 33.2995 124.276 32.7396C124.164 32.1424 123.958 31.6385 123.66 31.2279C123.361 30.8173 122.913 30.5 122.316 30.2761C121.719 30.0148 120.916 29.8842 119.908 29.8842H118.509C117.016 29.8842 115.952 30.1081 115.317 30.556C114.683 30.9666 114.254 31.6198 114.03 32.5157H107.535ZM113.302 43.3776C113.302 44.3481 113.488 45.076 113.862 45.5612C114.272 46.0091 114.72 46.2331 115.205 46.2331H124.444V40.5222H115.205C114.72 40.5222 114.272 40.7648 113.862 41.25C113.488 41.7353 113.302 42.4445 113.302 43.3776ZM147.028 29.8842C146.058 29.8842 145.255 30.0148 144.621 30.2761C144.024 30.5 143.557 30.8173 143.221 31.2279C142.885 31.6385 142.643 32.1424 142.493 32.7396C142.381 33.2995 142.325 33.9154 142.325 34.5873V52H135.774V23.5014H142.325V24.2292C143.632 23.744 145.031 23.5014 146.524 23.5014H149.436C151.078 23.5014 152.534 23.7813 153.803 24.3412C155.072 24.9011 156.117 25.6476 156.939 26.5808C157.797 27.4766 158.432 28.5217 158.842 29.7162C159.29 30.8733 159.514 32.0491 159.514 33.2435V52H152.963V34.5873C152.963 33.9154 152.907 33.2995 152.795 32.7396C152.683 32.1424 152.459 31.6385 152.123 31.2279C151.825 30.8173 151.377 30.5 150.78 30.2761C150.182 30.0148 149.38 29.8842 148.372 29.8842H147.028ZM162.306 23.5014H167.569V13.8712H174.175V23.5014H179.438V29.9401H174.175V52H167.569V29.9401H162.306V23.5014ZM193.707 29.8842C192.737 29.8842 191.934 30.0148 191.299 30.2761C190.702 30.5 190.236 30.8173 189.9 31.2279C189.564 31.6385 189.321 32.1424 189.172 32.7396C189.06 33.2995 189.004 33.9154 189.004 34.5873V52H182.733V13.8712H189.004V24.1172C189.564 23.9306 190.142 23.7813 190.74 23.6693C191.374 23.5573 192.046 23.5014 192.755 23.5014H196.115C197.757 23.5014 199.194 23.7813 200.426 24.3412C201.695 24.9011 202.74 25.6476 203.561 26.5808C204.42 27.4766 205.054 28.5217 205.465 29.7162C205.875 30.8733 206.081 32.0491 206.081 33.2435V52H199.754V34.5873C199.754 33.9154 199.698 33.2995 199.586 32.7396C199.474 32.1424 199.231 31.6385 198.858 31.2279C198.522 30.8173 198.056 30.5 197.458 30.2761C196.861 30.0148 196.077 29.8842 195.107 29.8842H193.707ZM241.069 45.3932C242.151 45.3932 243.028 45.076 243.7 44.4414C244.372 43.7695 244.82 42.967 245.044 42.0339V35.7071H238.717V29.7162H251.483V52H245.044V50.7682C244.298 51.1788 243.476 51.4961 242.581 51.7201C241.722 51.9067 240.845 52 239.949 52H236.086C234.593 52 233.174 51.7201 231.831 51.1602C230.487 50.5629 229.311 49.7604 228.303 48.7526C227.295 47.7448 226.493 46.569 225.896 45.2253C225.336 43.8815 225.056 42.4445 225.056 40.9141V25.0131C225.056 23.4827 225.336 22.0456 225.896 20.7019C226.493 19.3208 227.295 18.1264 228.303 17.1186C229.311 16.1107 230.487 15.3269 231.831 14.767C233.174 14.1698 234.593 13.8712 236.086 13.8712H240.901C242.357 13.8712 243.7 14.1324 244.932 14.655C246.164 15.1776 247.228 15.9054 248.124 16.8386C249.057 17.7344 249.803 18.7982 250.363 20.03C250.923 21.2618 251.278 22.5869 251.427 24.0053H244.54C244.279 23.0348 243.868 22.2136 243.308 21.5417C242.786 20.8698 241.965 20.5339 240.845 20.5339H236.142C235.507 20.5339 234.91 20.6646 234.35 20.9258C233.828 21.1498 233.38 21.4857 233.006 21.9336C232.633 22.3816 232.334 22.9041 232.111 23.5014C231.924 24.0612 231.831 24.6771 231.831 25.349V40.5222C231.831 41.194 231.924 41.8286 232.111 42.4258C232.334 42.9857 232.633 43.4896 233.006 43.9375C233.38 44.3854 233.828 44.74 234.35 45.0013C234.91 45.2626 235.507 45.3932 236.142 45.3932H241.069ZM268.536 38.8985H268.872C269.842 34.7179 270.831 30.5747 271.839 26.4688C272.884 22.3629 273.911 18.1637 274.918 13.8712H281.749L272.343 52H265.064L255.322 13.8712H262.209L268.536 38.8985Z" fill="#8E8E8E"/>
</svg>
